# xmcd
#
# Track frame offsets: 
#        150
#        11266
#        22508
#        36236
#        47542
#        58003
#        69804
#        80365
#        90610
#        103553
#        113505
#        131399
#        140118
#        148664
#        163329
#        174161
#        181391
#        192639
#        203134
#        211885
#        224270
#        233750
#        247974
#        258771
#        273952
#
# Disc length: 3784 seconds
#
# Revision: 0
# Processed by: cddbd v1.4PL0 Copyright (c) Steve Scherf et al.
# Submitted via: ExactAudioCopy v0.95a3
#
DISCID=4e0ec619
DTITLE=Peter Reitmeir - Tiroler Harfenstücke
DYEAR=1900
DGENRE=Country
TTITLE0=Zillertaler Boarischer
TTITLE1=Tiroler Herzen
TTITLE2=Brixenthaler Bauernpolka
TTITLE3=Masolka
TTITLE4=Landler in B
TTITLE5=Bischofshofner Boarischer
TTITLE6=Zillertaler Tanzl
TTITLE7=s Wasserl
TTITLE8=Auf der Grießneralm Boarischer
TTITLE9=Brixlegger Landler
TTITLE10=Agattanz
TTITLE11=Mozart Menuett
TTITLE12=Salzburger Tänzchen
TTITLE13=Menuett aus Platt 1
TTITLE14=Im schönen Kaisertal
TTITLE15=Weber-Pauli-Landler
TTITLE16=Boarischer
TTITLE17=Harfenlandler
TTITLE18=Moarhofer Marsch
TTITLE19=Gruß aus Kufstein
TTITLE20=Harfenpolka
TTITLE21=Gruß aus Oberau
TTITLE22=Grüsse aus St. Johann
TTITLE23=Menuett aus Platt 2
TTITLE24=Kehraus
EXTD=
EXTT0=
EXTT1=
EXTT2=
EXTT3=
EXTT4=
EXTT5=
EXTT6=
EXTT7=
EXTT8=
EXTT9=
EXTT10=
EXTT11=
EXTT12=
EXTT13=
EXTT14=
EXTT15=
EXTT16=
EXTT17=
EXTT18=
EXTT19=
EXTT20=
EXTT21=
EXTT22=
EXTT23=
EXTT24=
PLAYORDER=
